<svg id="Capa_1" data-name="Capa 1" xmlns="http://www.w3.org/2000/svg" viewBox="0 0 1213 385.01"><defs><style>.cls-1{fill:#f7f6f6;}.cls-2,.cls-3{fill:#242424;}.cls-3{font-size:147.65px;font-family:Poppins-Bold, Poppins;font-weight:700;}</style></defs><title>Light_Logo</title><circle class="cls-1" cx="192.5" cy="192.5" r="192.5"/><path class="cls-2" d="M221.54,269.29l-12.23-53.81h-55l-11,46.48c-1.64,7.33-1.64,13.26,0,17.73s5.3,6.73,11,6.73h3.67v7.33H112.69v-7.33h3.67a13,13,0,0,0,8.56-3.06c2.45-2,4.07-5.51,4.89-10.4l47.7-187.12,18.34-6.11L242.33,273c1.62,4.89,3.67,8.37,6.11,10.4a13,13,0,0,0,8.56,3.06h3.67v7.33H208.08v-7.33H213c4.89,0,7.94-1.42,9.17-4.29S223.16,275,221.54,269.29Zm-13.46-61.15L183.62,106.63H182.4L156.72,208.14Z" transform="translate(0 -2)"/><path class="cls-2" d="M165.11,239.58q0,33.36,22.16,55.36t55.78,22q32.51,0,51.62-15t19.11-40.62q0-49.32-50.79-87.85-23.82-18.12-59-28.76A243.92,243.92,0,0,0,133,134q-41.37,0-68.06,12.51T38.23,178.47q0,16.11,17.27,27.18t42.57,11.07q21.62,0,65-9.21,62.23-13.08,84.22-13.08,3.51,0,12.19.57,5.72,6.19,18.09,17.12l2.22,2.15a87.91,87.91,0,0,0-24-3.45q-15.69,0-49.49,6.47-60.95,11.66-83.85,11.65-39.15,0-68.24-17.18T25.12,171.28q0-21.14,23.46-33.36t63.71-12.22q87,0,149.41,38.24,33.06,20.28,52.27,49.11t19.2,58q0,26.61-21.33,43.71T257.27,331.9q-45.79,0-81.45-40.12-19.94-22.29-19.94-40.84,0-11.79,9.23-16.25Z" transform="translate(0 -2)"/><text class="cls-3" transform="translate(459.52 248.39)">AndreDev</text></svg>